<svg width="524" height="472" viewBox="0 0 524 472" fill="none" xmlns="http://www.w3.org/2000/svg">
<path d="M87.6024 221.222C86.0258 221.222 84.5704 221.263 83.196 221.384C76.0406 222.192 72.7257 223.808 73.2512 226.233C73.1299 227.606 74.5448 229.748 77.4151 232.698L83.6002 238.354L92.1705 246.153L92.8982 246.799C96.7791 250.921 98.8408 253.345 99.0025 254.113C99.811 254.961 100.539 257.183 101.266 260.78L100.902 271.891C101.468 274.437 102.115 275.891 102.843 276.255C102.883 276.498 103.409 276.942 104.339 277.548C104.743 277.467 105.066 277.427 105.228 277.386C106.562 277.144 107.815 276.982 109.069 276.902C110.12 276.821 111.13 276.78 112.141 276.78C112.303 276.78 112.505 276.78 112.666 276.78C112.747 276.78 112.869 276.78 112.99 276.78C113.758 276.78 115.375 276.902 117.72 277.184C120.428 277.548 124.026 278.397 128.473 279.73C122.328 280.215 117.72 280.74 114.688 281.265C113.879 281.427 113.152 281.548 112.545 281.669C122.53 285.993 127.988 288.7 128.998 289.751C132.879 292.215 135.992 295.286 138.337 298.963C140.399 301.59 142.379 306.762 144.279 314.479C144.603 315.61 145.128 318.964 145.816 324.581C146.786 338.399 147.433 345.551 147.675 346.036C148.524 350.642 149.131 353.39 149.575 354.279C152.688 362.279 157.054 368.542 162.633 373.027C169.707 378.886 175.488 381.795 180.056 381.795C183.371 381.795 186.039 380.219 188.02 377.068C189.92 373.431 191.093 368.259 191.578 361.512C192.184 351.168 192.022 339.288 191.173 325.833L190.81 319.287C180.905 291.731 173.79 274.437 169.424 267.406C163.401 255.85 156.205 246.718 147.918 239.971C140.52 233.869 131.222 229.223 120.024 225.99C120.105 226.839 120.226 227.849 120.347 228.98C120.63 232.495 120.63 237.506 120.266 243.89C115.86 234.395 112.141 227.566 109.109 223.404C108.583 223.283 108.058 223.202 107.492 223.121C99.528 221.828 92.8982 221.222 87.6024 221.222Z" fill="#F15554"/>
<path d="M83.5605 238.314L92.1308 246.112C92.2521 246.153 92.3734 246.153 92.4947 246.193C95.4862 246.961 99.8926 248.415 105.714 250.476C102.197 247.446 99.2862 245.183 96.9819 243.728C94.5968 242.314 93.1415 241.506 92.5351 241.264C91.484 240.779 90.3521 240.294 89.1797 239.89C88.0074 239.486 86.7542 239.082 85.4606 238.758C85.1776 238.678 84.5712 238.556 83.5605 238.314Z" fill="white"/>
<path d="M83.9255 295.529C82.8744 295.973 81.9042 296.418 81.0553 296.862C76.5276 299.367 74.7893 301.428 75.7999 302.883C76.1233 303.812 77.6191 304.862 80.4085 306.034L86.1085 308.054L93.9915 310.842L94.6384 311.085C98.398 312.742 100.419 313.752 100.743 314.237C101.511 314.56 102.643 315.853 104.138 318.035L107.049 325.51C108.141 327.045 108.99 327.813 109.596 327.853C109.677 328.015 110.162 328.136 110.97 328.298C111.213 328.136 111.415 328.015 111.536 327.934C112.345 327.409 113.153 326.924 113.962 326.52C114.649 326.156 115.296 325.833 115.983 325.55C116.104 325.51 116.226 325.469 116.347 325.389C116.387 325.348 116.468 325.348 116.549 325.308C117.075 325.106 118.166 324.702 119.824 324.257C121.724 323.732 124.351 323.287 127.707 322.924C123.745 324.985 120.834 326.641 118.975 327.853C118.49 328.177 118.045 328.459 117.681 328.742C125.524 328.823 129.89 329.268 130.9 329.47C134.134 330.197 137.045 331.288 139.713 332.945C141.734 334.197 144.564 336.985 148.041 341.591C148.566 342.278 149.981 344.258 151.922 347.854C156.611 356.703 158.915 361.35 159.198 361.592C161.058 364.421 162.311 366.037 162.796 366.522C167.203 370.926 171.811 373.876 176.743 375.33C183.09 377.189 187.78 377.512 190.811 376.26C193.035 375.33 194.45 373.552 194.773 370.886C195.137 367.936 194.369 364.138 192.752 359.532C190.246 352.501 186.769 344.622 182.443 335.935L180.382 331.692C166.03 316.136 156.247 306.883 151.518 303.206C144.079 297.428 136.883 293.185 129.485 291.044C122.856 289.104 115.336 288.619 107.009 289.589C107.332 290.114 107.696 290.761 108.06 291.488C109.273 293.751 110.647 297.064 112.224 301.428C106.604 296.377 102.238 292.862 99.0448 290.963C98.6809 291.044 98.2767 291.124 97.9128 291.205C92.0107 292.579 87.4426 294.034 83.9255 295.529Z" fill="#F15554"/>
<path d="M83.5605 238.314L92.1308 246.112C92.2521 246.153 92.3734 246.153 92.4947 246.193C95.4862 246.961 99.8926 248.415 105.714 250.476C102.197 247.446 99.2862 245.183 96.9819 243.728C94.5968 242.314 93.1415 241.506 92.5351 241.264C91.484 240.779 90.3521 240.294 89.1797 239.89C88.0074 239.486 86.7542 239.082 85.4606 238.758C85.1776 238.678 84.5712 238.556 83.5605 238.314Z" fill="white"/>
<path d="M152.206 380.219C160.412 373.916 168.619 367.572 174.804 358.764C181.029 349.955 185.274 338.682 177.351 337.753C176.987 337.712 176.583 337.672 176.178 337.672C169.872 337.672 158.229 342.197 151.276 342.197C148.81 342.197 146.91 341.632 146.102 340.056C142.827 333.833 156.37 311.853 155.642 302.438C155.319 297.993 151.802 296.337 147.597 296.337C142.908 296.337 137.41 298.397 134.58 300.983C129.204 305.873 133.367 312.499 132.559 320.661C131.791 328.54 126.374 337.793 116.914 337.793C116.591 337.793 116.267 337.793 115.944 337.753C105.918 337.106 91.6075 326.116 85.584 325.55C85.4223 325.55 85.2606 325.51 85.0989 325.51C79.7222 325.51 81.9861 335.005 84.2095 344.501C77.135 343.45 70.0605 342.399 64.8455 342.399C62.2583 342.399 60.1561 342.642 58.7008 343.288C54.3348 345.228 56.1944 350.723 58.054 356.218C53.6476 355.976 49.2411 355.733 45.4007 355.733C39.3772 355.733 34.6474 356.34 33.1516 358.441C30.6857 361.916 36.9517 369.552 43.1773 377.149L152.206 380.219Z" fill="#F15554"/>
<path d="M139.915 325.146C141.127 325.389 141.936 326.52 142.381 328.54L147.07 351.854C147.959 354.683 149.415 357.107 151.476 359.168C152.164 359.814 152.932 360.138 153.781 360.178C154.468 360.218 155.196 360.057 155.964 359.734C156.651 359.572 159.198 358.077 163.604 355.168C165.706 354.077 167 353.552 167.485 353.592C167.526 353.592 167.526 353.592 167.526 353.592C167.97 353.552 168.374 353.552 168.779 353.552C170.436 353.632 171.609 354.319 172.215 355.531C172.902 356.824 173.387 358.4 173.67 360.299C169.143 366.037 162.674 372.138 154.266 378.644L152.204 380.219L43.1352 377.189C38.2841 371.411 35.2117 367.249 33.9181 364.704C32.1394 361.592 32.0989 359.33 33.716 357.835L34.2415 357.996L39.8203 360.542C40.3458 360.784 41.9628 361.269 44.7118 361.916C44.1054 361.996 49.1991 362.724 59.9523 364.057L67.7545 366.037C68.4014 366.118 68.9673 366.199 69.4524 366.239C70.0992 366.279 70.6248 366.239 70.9482 366.158C73.3737 365.39 74.3035 363.936 73.7376 361.875C73.4546 360.905 72.9695 359.895 72.2418 358.845C69.3716 355.127 67.6737 352.703 67.1482 351.572C66.7843 350.764 66.7843 350.077 67.1077 349.551L67.9971 348.864C68.3205 348.703 68.7248 348.622 69.1694 348.662C69.6546 348.703 70.1801 348.824 70.7461 349.066L83.4802 355.612C85.0164 356.34 86.8355 356.865 89.0185 357.269L90.1909 357.107C90.9186 356.865 91.6058 356.42 92.2122 355.733L97.4675 348.38C98.1144 347.652 98.8016 347.167 99.5697 346.844L100.985 346.561C101.227 346.521 101.51 346.521 101.793 346.521C103.046 346.602 104.704 347.127 106.685 348.056C108.302 348.945 110.97 350.642 114.608 353.147C115.659 353.794 116.71 354.36 117.721 354.804C118.974 355.289 120.066 355.531 121.076 355.572C121.925 355.612 122.734 355.531 123.381 355.249C125.604 354.845 127.868 352.743 130.132 348.905C131.91 345.551 133.932 338.723 136.155 328.379C137.044 326.358 138.217 325.267 139.915 325.146Z" fill="black" fill-opacity="0.102"/>
<path d="M219.795 371.896C204.231 371.855 188.627 371.815 173.386 371.815C89.3006 371.815 14.7148 372.987 2.06155 381.795C-12.896 392.22 58.6173 413.312 112.545 422.524C139.065 427.05 161.38 428.666 181.35 428.666C202.008 428.666 220.199 426.929 238.149 424.787C273.481 420.625 307.721 414.968 352.918 410.645C398.114 406.322 454.265 403.332 447.474 397.634C440.723 391.978 371.028 383.614 301.375 375.249L219.795 371.896Z" fill="#3D5F7E"/>
<path d="M281.93 367.209C235.198 371.411 188.465 375.573 163.927 379.654C139.388 383.735 137.084 387.735 115.537 389.957C93.9902 392.18 53.2005 392.584 45.8834 394.685C38.5663 396.786 64.7623 400.503 84.2476 403.008C103.692 405.513 116.467 406.806 122.814 407.089C129.161 407.372 129.161 406.604 137.812 408.988C146.463 411.372 163.846 416.948 176.58 417.312C177.025 417.312 177.47 417.312 177.914 417.312C189.88 417.312 197.602 412.585 200.068 406.604C202.655 400.382 199.704 392.826 214.863 391.412C216.723 391.25 218.866 391.169 221.21 391.169C238.149 391.169 267.134 395.048 293.936 396.422C301.051 396.786 308.045 396.988 314.513 396.988C335.777 396.988 351.624 395.008 349.724 390.846C347.299 385.432 314.594 376.34 281.93 367.209Z" fill="black" fill-opacity="0.1059"/>
<path d="M452.648 176.776C445.21 166.634 437.812 156.532 428.231 152.047C424.067 150.108 419.499 149.219 415.133 149.219C409.474 149.219 404.137 150.754 400.62 153.421C394.395 158.108 393.667 166.391 392.939 174.675C388.937 171.846 384.895 169.058 379.437 168.816C379.154 168.816 378.912 168.816 378.629 168.816C373.292 168.816 366.824 171.038 362.903 173.826C358.779 176.735 357.445 180.291 356.152 183.806C343.781 187.443 331.411 191.12 322.962 194.635C314.473 198.191 309.905 201.625 305.336 205.06C304.932 206.434 304.488 207.767 321.83 211.202C338.445 214.474 371.311 219.606 407.816 219.606C409.433 219.606 411.01 219.606 412.627 219.566C451.031 219.081 492.791 212.697 505.121 205.06C517.451 197.423 500.351 188.615 486.687 183.685C473.023 178.715 462.836 177.745 452.648 176.776Z" fill="#3D5F7E"/>
<path d="M414.647 160.573L414 159.967C409.593 155.159 403.893 153.098 396.9 153.825C392.372 154.148 389.623 156.048 388.693 159.522C385.5 157.947 382.063 157.543 378.425 158.351C375.11 158.957 373.008 159.927 372.078 161.3C358.414 162.917 350.612 164.533 348.591 166.189C354.372 167.644 366.378 168.897 384.691 169.988C396.455 170.594 409.23 170.392 422.974 169.503C435.345 168.533 440.196 167.159 437.528 165.462C432.07 162.755 424.43 161.139 414.647 160.573Z" fill="#436381"/>
<path d="M469.1 208.696L469.666 207.848C473.385 201.14 478.115 198.352 483.937 199.161C487.696 199.686 489.96 202.191 490.688 206.959C493.356 204.737 496.186 204.252 499.258 205.262C502.007 206.151 503.745 207.403 504.513 209.302C515.833 211.404 522.341 213.585 523.999 215.848C519.188 217.909 509.162 219.889 493.962 221.465C484.179 222.475 473.547 222.394 462.147 221.141C451.879 220.01 447.755 217.788 450.06 215.687C454.507 211.606 460.975 209.585 469.1 208.696Z" fill="#436381"/>
<path d="M206.208 128.208C206.167 128.208 206.167 128.208 206.127 128.208C203.378 128.208 200.791 129.339 198.85 131.238C196.91 133.178 195.818 135.845 195.818 138.592V365.027C195.818 367.774 196.91 370.441 198.85 372.381C200.791 374.32 203.459 375.411 206.208 375.411H242.51V370.562H206.208C204.752 370.562 203.338 369.997 202.287 368.946C201.235 367.896 200.669 366.522 200.669 365.027V138.592C200.669 137.138 201.235 135.723 202.287 134.673C203.338 133.622 204.712 133.057 206.208 133.057C206.248 133.057 206.248 133.057 206.289 133.057H358.815C361.888 133.057 364.354 135.521 364.354 138.592V186.958H369.205V138.592C369.205 132.855 364.556 128.208 358.815 128.208H206.208Z" fill="#106DC7"/>
<path d="M185.512 144.572C183.41 144.572 181.388 145.421 179.893 146.916C178.397 148.411 177.548 150.431 177.548 152.532V379.007C177.548 381.108 178.397 383.129 179.893 384.624C181.388 386.119 183.41 386.967 185.512 386.967H338.119C342.526 386.967 346.083 383.411 346.083 379.007V152.532C346.083 148.128 342.526 144.572 338.119 144.572H185.512Z" fill="#D0E1F1"/>
<path d="M194.487 172.412H219.268V197.181H194.487V172.412Z" fill="white"/>
<path d="M225.533 215.646H242.795V232.9H225.533V215.646Z" fill="white"/>
<path d="M195.337 249.951H211.952V266.558H195.337V249.951Z" fill="#FF94FF"/>
<path d="M243.319 264.699H268.949V290.316H243.319V264.699Z" fill="white"/>
<path d="M199.257 300.337H221.612V322.681H199.257V300.337Z" fill="white"/>
<path d="M241.826 318.358H259.735V336.258H241.826V318.358Z" fill="#6660FF"/>
<path d="M190.362 340.5H204.471V354.602H190.362V340.5Z" fill="#FF94FF"/>
<path d="M240.935 181.544H253.75V193.504H240.935V181.544Z" fill="#6660FF"/>
<path d="M305.659 181.14C304.608 181.14 303.638 181.544 302.91 182.271C302.183 182.998 301.778 184.008 301.778 185.019V220.697C301.778 221.747 302.183 222.717 302.91 223.445C303.638 224.172 304.649 224.576 305.659 224.576H417.598C419.741 224.576 421.52 222.838 421.52 220.657V184.978C421.52 182.837 419.781 181.059 417.598 181.059H361.649L305.659 181.14Z" fill="#106DC7"/>
<path d="M310.145 192.211H350.733C351.905 192.211 352.835 193.14 352.835 194.312C352.835 195.484 351.905 196.413 350.733 196.413H310.145C308.973 196.413 308.043 195.484 308.043 194.312C308.043 193.14 308.973 192.211 310.145 192.211Z" fill="white"/>
<path d="M310.224 205.019L404.093 205.302C405.265 205.302 406.195 206.232 406.195 207.403C406.195 208.575 405.265 209.505 404.093 209.505L310.224 209.222C309.052 209.222 308.122 208.292 308.122 207.121C308.122 205.949 309.052 204.979 310.224 205.019Z" fill="white"/>
<path d="M149.493 147.522L149.534 147.562L149.493 147.522C148.887 146.471 148.321 145.38 147.755 144.33L150.949 142.673C151.474 143.724 152.04 144.734 152.647 145.784L152.606 145.744L149.493 147.522ZM144.562 137.784C141.368 130.673 139.064 123.723 137.73 116.975L141.247 116.288C142.54 122.793 144.723 129.46 147.796 136.329L144.562 137.784ZM136.678 109.702C136.557 108.449 136.476 107.237 136.396 106.025L139.993 105.863C140.034 107.035 140.115 108.207 140.236 109.379L136.678 109.702ZM136.476 98.6712C136.921 91.2769 138.659 84.1655 141.57 77.2965L144.885 78.7107C142.096 85.216 140.519 91.9638 140.074 98.9136L136.476 98.6712ZM144.804 70.6699C145.37 69.6193 146.017 68.5688 146.664 67.5182L149.696 69.4173C149.089 70.4275 148.483 71.3972 147.917 72.4073L144.804 70.6699ZM150.828 61.4978C154.951 56.0026 159.964 50.7094 165.906 45.5778L168.251 48.285C162.551 53.255 157.7 58.3461 153.698 63.6393L150.828 61.4978ZM172.213 41.4564C173.304 40.8908 174.355 40.3251 175.447 39.7998L177.064 42.9919C176.013 43.5171 174.962 44.0424 173.911 44.6081L172.213 41.4564ZM182.036 36.6885C188.949 33.6985 195.862 31.3954 202.734 29.7791L203.543 33.2944C196.873 34.8299 190.162 37.0522 183.451 39.9614L182.036 36.6885ZM209.89 28.4457C211.102 28.2437 212.315 28.0821 213.488 27.9205L213.932 31.4762C212.76 31.6378 211.628 31.7994 210.456 31.9611L209.89 28.4457ZM220.805 27.3144C228.081 26.9507 235.358 27.3952 242.635 28.6478L242.028 32.2035C235.035 30.9913 228 30.5873 220.966 30.9105L220.805 27.3144ZM249.79 30.1024H249.709H249.79C250.962 30.3852 252.135 30.7085 253.307 31.0317L252.337 34.5066C251.205 34.1834 250.073 33.9005 248.941 33.6177H249.022L249.79 30.1024ZM260.26 33.2136C263.737 34.4258 267.173 35.84 270.609 37.4158C270.731 37.4563 270.811 37.5371 270.892 37.5775C274.046 39.8402 276.714 42.3454 278.897 45.1738L276.067 47.3557C274.126 44.8101 271.701 42.5474 268.831 40.4867L269.114 40.6483C265.758 39.1129 262.403 37.7795 259.048 36.5673L260.26 33.2136ZM282.818 51.6387L282.778 51.5983L282.818 51.6387C283.343 52.7701 283.788 53.9419 284.192 55.154L280.797 56.2854C280.433 55.1944 280.029 54.1439 279.584 53.1337L279.624 53.1741L282.818 51.6387ZM285.769 62.5079C286.214 66.5081 286.133 70.7911 285.486 75.3974V75.4782C284.88 78.7107 284.152 81.7007 283.343 84.4887L279.907 83.4381C280.716 80.8118 281.403 77.943 281.969 74.8317V74.9125C282.575 70.6295 282.697 66.6293 282.252 62.9524L285.769 62.5079ZM280.716 91.3981C280.19 92.5699 279.624 93.7012 279.018 94.7518L275.905 93.0143C276.431 92.0446 276.956 91.0345 277.441 89.9435L280.716 91.3981ZM274.652 100.934C270.731 105.298 265.92 107.965 260.26 108.975C260.099 109.015 259.937 109.015 259.735 108.975C257.592 108.732 255.571 108.369 253.671 107.924L254.52 104.449C256.258 104.894 258.118 105.217 260.099 105.419H259.573C264.424 104.57 268.548 102.267 271.903 98.5095L274.652 100.934ZM246.596 105.338L246.637 105.379L246.596 105.338C245.424 104.732 244.333 104.086 243.281 103.358L245.343 100.409C246.233 101.015 247.162 101.58 248.213 102.106L248.173 102.065L246.596 105.338ZM237.784 97.9439C233.862 92.5295 232.124 85.2968 232.609 76.2459L236.207 76.4479C235.762 84.6503 237.258 91.1557 240.694 95.8428L237.784 97.9439ZM234.266 68.892C234.59 67.7203 234.954 66.5485 235.318 65.3767L238.713 66.5081C238.35 67.6394 238.026 68.7304 237.703 69.8618L234.266 68.892ZM237.905 58.5077C240.654 51.9216 244.211 45.5778 248.618 39.4766L251.528 41.5777C247.324 47.4769 243.847 53.5782 241.22 59.9219L237.905 58.5077ZM253.024 33.6985C253.792 32.7692 254.56 31.8398 255.369 30.9105L258.077 33.254C257.309 34.143 256.541 35.0319 255.813 35.9612L253.024 33.6985ZM260.301 25.5769C263.899 21.9404 267.78 18.3443 272.024 14.9098C272.065 14.8694 272.146 14.829 272.186 14.7886C273.884 13.6976 275.622 12.647 277.32 11.6369L279.099 14.7481C277.441 15.7179 275.784 16.728 274.126 17.7786L274.288 17.6574C270.165 21.0515 266.365 24.5264 262.848 28.0821L260.301 25.5769ZM283.788 8.2428C284.88 7.71752 286.012 7.19225 287.103 6.74778L288.518 10.0611C287.467 10.5055 286.375 10.9904 285.324 11.5157L283.788 8.2428ZM293.975 4.1214C301.09 1.73745 308.246 0.363653 315.522 0L315.684 3.59612C308.771 3.91937 301.899 5.25277 295.107 7.51549L293.975 4.1214ZM322.88 0C324.093 0.0404059 325.305 0.121218 326.518 0.242435L326.195 3.79815C325.023 3.67694 323.85 3.59612 322.718 3.55572L322.88 0ZM333.795 1.21218C340.708 2.46476 347.661 4.60627 354.736 7.59631L353.28 10.9096C346.489 8.00037 339.778 5.93966 333.148 4.76789L333.795 1.21218ZM361.285 10.7076C362.376 11.2328 363.427 11.7985 364.519 12.4046L362.821 15.5563C361.77 14.9906 360.719 14.4249 359.667 13.8996L361.285 10.7076ZM370.825 16.0411C373.695 17.7786 376.525 19.6777 379.436 21.698L379.517 21.7384C382.589 24.1223 385.54 26.5871 388.329 29.173L385.904 31.7994C383.155 29.2943 380.285 26.8699 377.293 24.5668L377.374 24.6072C374.544 22.6273 371.755 20.7686 368.965 19.0716L370.825 16.0411ZM393.544 34.2238C394.393 35.1127 395.242 35.9612 396.051 36.8502L393.423 39.2745C392.615 38.426 391.806 37.5775 390.998 36.729L393.544 34.2238ZM400.821 42.3454C405.43 47.9618 409.553 53.9823 413.151 60.326L410.038 62.1038C406.561 55.9217 402.559 50.1033 398.072 44.6081L400.821 42.3454ZM416.547 66.7505C417.072 67.8415 417.598 68.9324 418.083 70.0234L414.808 71.5184C414.323 70.4275 413.798 69.3769 413.313 68.3263L416.547 66.7505ZM420.953 76.7308C423.54 83.3169 425.683 90.2667 427.34 97.5398L423.823 98.3479C422.206 91.2769 420.104 84.4887 417.598 78.0642L420.953 76.7308ZM428.796 104.651C428.998 105.823 429.2 107.035 429.402 108.247L425.845 108.813C425.642 107.641 425.44 106.47 425.238 105.298L428.796 104.651ZM430.413 115.399C430.857 119.036 431.181 122.753 431.423 126.551V126.672V126.632C431.504 130.43 431.423 133.946 431.181 137.259L427.583 136.976C427.825 133.824 427.906 130.39 427.825 126.713V126.672V126.794C427.583 123.076 427.259 119.44 426.855 115.844L430.413 115.399ZM430.251 144.532C430.008 145.784 429.766 146.997 429.483 148.168L426.006 147.32C426.289 146.229 426.532 145.098 426.734 143.926L430.251 144.532ZM427.098 155.239C425.117 159.644 422.449 163.078 419.134 165.503C419.053 165.543 418.972 165.624 418.891 165.664C415.779 167.28 412.706 168.371 409.715 168.977L409.027 165.462C411.696 164.937 414.445 163.967 417.234 162.512L416.991 162.674C419.821 160.573 422.085 157.623 423.823 153.825L427.098 155.239ZM401.993 169.301C400.7 169.139 399.447 168.897 398.193 168.573L399.164 165.098C400.215 165.381 401.306 165.624 402.398 165.745L401.993 169.301ZM391.2 165.462C388.532 163.805 385.985 161.664 383.478 158.997L383.519 159.038C380.083 155.684 378.385 151.684 378.506 147.077L382.104 147.158C382.023 150.754 383.357 153.866 386.066 156.492L386.106 156.532C388.37 158.957 390.715 160.896 393.1 162.391L391.2 165.462ZM380.083 139.481C380.487 138.35 381.012 137.218 381.619 136.006L384.812 137.622C384.287 138.673 383.842 139.724 383.438 140.734L380.083 139.481ZM385.419 129.662C387.197 127.117 389.3 124.45 391.766 121.662C391.806 121.622 391.806 121.622 391.846 121.581C394.717 118.712 397.91 116.288 401.306 114.268L403.085 117.379C399.932 119.197 397.021 121.46 394.353 124.086L394.434 124.006C392.089 126.672 390.068 129.258 388.37 131.683L385.419 129.662ZM408.057 111.116L408.138 111.076L408.057 111.116C409.23 110.672 410.402 110.308 411.615 109.944L412.625 113.379C411.493 113.702 410.402 114.066 409.351 114.47L409.27 114.51L408.057 111.116ZM418.851 108.369C424.47 107.56 430.534 107.56 437.043 108.369C437.123 108.369 437.204 108.409 437.285 108.409C438.538 108.732 439.792 109.055 441.004 109.419L439.994 112.854C438.821 112.49 437.649 112.167 436.436 111.884L436.598 111.924C430.372 111.157 424.632 111.157 419.336 111.924L418.851 108.369ZM447.917 111.803C449.049 112.248 450.181 112.732 451.313 113.217L449.858 116.49C448.806 116.005 447.715 115.561 446.624 115.157L447.917 111.803ZM457.862 116.49C464.451 120.208 470.151 124.854 474.962 130.349L472.254 132.693C467.726 127.481 462.349 123.117 456.124 119.601L457.862 116.49ZM479.449 136.168C480.137 137.178 480.824 138.229 481.43 139.279L478.358 141.138C477.751 140.128 477.105 139.158 476.458 138.188L479.449 136.168ZM484.907 145.744C487.858 152.007 490.041 158.957 491.496 166.634L487.979 167.321C486.564 159.926 484.462 153.26 481.632 147.279L484.907 145.744ZM492.669 173.867C492.83 175.038 492.952 176.25 493.073 177.463L489.475 177.786C489.354 176.614 489.232 175.442 489.111 174.311L492.669 173.867ZM493.154 184.978C492.507 192.655 490.405 199.726 486.807 206.151L483.654 204.413C486.968 198.433 488.949 191.888 489.556 184.695L493.154 184.978ZM482.764 212.373C482.037 213.343 481.228 214.313 480.419 215.242L477.711 212.899C478.479 212.01 479.207 211.121 479.894 210.232L482.764 212.373ZM475.447 220.737C471.768 223.687 465.745 227.687 457.255 232.697L455.436 229.627C463.764 224.697 469.666 220.778 473.183 217.949L475.447 220.737ZM451.07 236.334C450.06 236.9 449.009 237.506 447.958 238.112L446.179 235.001C447.23 234.395 448.281 233.788 449.292 233.223L451.07 236.334ZM441.651 241.668C435.991 244.819 429.685 248.254 422.732 251.971L421.034 248.819C427.987 245.102 434.253 241.708 439.913 238.556L441.651 241.668ZM416.91 255.608C416.102 256.254 415.172 256.981 414.161 257.83L411.857 255.082C412.908 254.234 413.838 253.466 414.687 252.779L416.91 255.608ZM408.744 262.436C407.815 263.244 406.844 264.093 405.834 265.022C402.317 268.133 398.598 272.457 394.676 278.033L391.725 275.972C395.808 270.154 399.689 265.588 403.449 262.315C404.459 261.386 405.43 260.537 406.359 259.689L408.744 262.436ZM390.795 284.013C390.189 284.983 389.542 285.993 388.936 287.043L385.863 285.185C386.51 284.134 387.117 283.084 387.763 282.114L390.795 284.013ZM385.378 293.185C382.225 298.842 378.991 305.186 375.636 312.257L372.402 310.721C375.757 303.61 379.072 297.185 382.225 291.448L385.378 293.185ZM165.745 171.483C160.974 165.462 156.811 159.563 153.172 153.744L156.204 151.845C159.721 157.543 163.845 163.321 168.534 169.22L165.745 171.483Z" fill="#FFC9FF"/>
<path d="M381.7 295.69C380.285 295.003 378.546 295.286 377.414 296.418C372.159 301.792 365.731 305.307 358.212 306.883C349.925 308.62 341.84 307.57 333.997 303.731C332.501 303.004 331.046 302.196 329.591 301.266C327.974 300.135 326.518 298.963 325.144 297.711C324.861 297.468 324.578 297.266 324.254 297.105C323.244 296.62 321.991 296.579 320.939 297.145C320.252 297.509 319.646 298.074 319.322 298.761C308.084 321.025 305.941 346.076 312.895 373.916C313.42 377.633 316.978 385.755 323.567 398.2C323.608 398.281 323.648 398.321 323.688 398.402C324.416 399.574 325.144 400.705 325.871 401.837C326.235 402.402 326.761 402.806 327.327 403.089C327.852 403.372 328.499 403.493 329.106 403.453C334.765 403.21 340.425 402.483 346.165 401.311C373.17 395.574 394.919 380.947 411.332 357.471C411.413 357.39 411.453 357.269 411.493 357.188L416.951 347.652C417.719 346.319 417.598 344.703 416.627 343.49C416.264 343.046 415.859 342.723 415.374 342.48C415.051 342.319 414.727 342.197 414.364 342.157C412.706 341.834 411.049 341.389 409.391 340.864C409.149 340.783 408.947 340.743 408.704 340.702C408.259 340.581 407.41 340.218 406.117 339.571C404.54 338.803 402.478 337.712 399.932 336.298C398.072 334.965 396.334 333.551 394.798 332.056C394.636 331.894 394.474 331.773 394.272 331.652C393.423 331.005 391.563 328.621 388.693 324.5C386.551 320.944 384.974 316.984 384.044 312.661C383.236 307.974 383.114 303.569 383.68 299.448C383.963 297.913 383.155 296.377 381.7 295.69Z" fill="#F15554"/>
<path d="M366.217 325.591C362.296 323.813 358.375 323.57 354.534 324.863C350.694 326.197 347.783 328.783 345.762 332.621C345.155 333.874 344.711 335.207 344.468 336.5L344.225 338.48C344.145 339.814 344.266 341.107 344.508 342.399C344.994 344.581 345.843 346.561 347.096 348.258L336.868 369.027C335.332 372.138 336.625 375.896 339.698 377.431C339.698 377.431 339.698 377.431 339.738 377.431C342.851 378.926 346.57 377.674 348.106 374.563L358.011 354.521C359.506 354.683 361.043 354.602 362.579 354.279C366.581 353.43 369.775 351.289 372.2 347.814L373.251 345.996C375.03 342.076 375.273 338.157 373.979 334.318C372.645 330.48 370.058 327.571 366.217 325.591Z" fill="#106DC7"/>
<path d="M415.456 342.521C415.132 342.359 414.809 342.238 414.445 342.197C412.788 341.874 411.13 341.43 409.473 340.905C409.23 340.824 409.028 340.783 408.786 340.743C408.341 340.622 407.492 340.258 406.198 339.612C404.905 338.965 403.247 338.117 401.307 337.026C397.426 347.814 393.666 355.612 390.028 360.421C383.641 369.835 375.556 377.633 365.651 383.816C354.534 389.998 345.762 393.149 339.253 393.19C334.766 393.917 328.581 393.715 320.657 392.543C321.547 394.321 322.557 396.22 323.608 398.24C323.649 398.321 323.689 398.362 323.73 398.442C324.457 399.614 325.185 400.746 325.913 401.877C326.276 402.443 326.802 402.847 327.368 403.13C327.893 403.412 328.54 403.534 329.147 403.493C334.806 403.251 340.466 402.523 346.206 401.352C373.211 395.614 394.96 380.987 411.373 357.511C411.454 357.431 411.494 357.309 411.535 357.228L416.992 347.693C417.76 346.359 417.639 344.743 416.669 343.531C416.386 343.086 415.941 342.763 415.456 342.521Z" fill="black" fill-opacity="0.1059"/>
<path d="M355.624 324.54C355.26 324.621 354.937 324.742 354.573 324.863C350.733 326.197 347.782 328.742 345.801 332.621C345.154 333.874 344.75 335.207 344.507 336.5L344.265 338.48C344.184 339.814 344.305 341.107 344.548 342.399C344.992 344.581 345.882 346.561 347.135 348.258L336.907 369.027C335.371 372.138 336.664 375.896 339.737 377.431H339.777C342.445 378.724 345.558 377.957 347.377 375.775C346.488 375.775 345.558 375.573 344.709 375.128H344.669C341.556 373.593 340.303 369.835 341.839 366.724L352.067 345.955C350.814 344.218 349.924 342.278 349.479 340.096C349.196 338.803 349.116 337.51 349.197 336.177L349.439 334.197C349.682 332.864 350.086 331.571 350.733 330.318C351.986 327.894 353.603 325.954 355.624 324.54Z" fill="black" fill-opacity="0.2157"/>
<path d="M107.531 372.744C105.469 375.654 103.367 378.603 101.71 380.179C100.052 381.755 98.7587 381.957 97.8289 383.775C96.8991 385.593 96.3736 388.987 95.8076 392.382C95.9289 392.624 96.0502 392.866 96.3736 393.149C96.697 393.392 97.2629 393.675 97.7481 393.755C97.9906 393.796 98.1523 393.836 98.3544 393.836C98.5566 393.836 98.7183 393.836 98.9204 393.796C99.8906 391.048 100.901 388.301 101.912 388.301C102.074 388.301 102.276 388.381 102.437 388.583C103.65 389.796 104.863 395.452 108.703 398.847C112.261 401.998 118.082 403.13 120.184 403.13C120.346 403.13 120.467 403.13 120.589 403.13C122.206 402.928 118.972 401.473 115.778 398.281C112.584 395.089 109.472 390.119 108.906 386.078C108.38 382.038 110.442 378.967 112.463 375.856L107.531 372.744Z" fill="#FFC9FF"/>
<path d="M101.103 380.704L98.88 382.401C98.3949 382.886 98.1523 383.209 98.0715 383.371C97.1821 384.906 96.4544 387.897 95.8076 392.422C95.9693 392.866 96.3736 393.271 97.0608 393.553C97.1012 393.594 97.1417 393.594 97.1821 393.634C97.7481 393.877 98.314 393.957 98.88 393.836C99.6885 391.573 100.295 390.038 100.74 389.311C101.184 388.664 101.467 388.341 101.548 388.381C101.71 388.301 101.912 388.26 102.074 388.341C102.154 388.381 102.276 388.462 102.357 388.543C102.559 388.745 102.761 389.068 102.963 389.472C104.58 393.149 105.672 395.331 106.197 395.937C107.208 397.432 108.218 398.564 109.229 399.291C110.28 400.099 111.452 400.746 112.746 401.311C113.514 401.635 114.282 401.917 115.131 402.2C116.021 402.483 117.193 402.766 118.689 403.008C119.901 403.17 120.629 403.13 120.912 402.887L120.872 402.685C120.791 402.523 120.589 402.362 120.346 402.16C118.527 400.746 117.233 399.695 116.506 399.008C115.172 397.715 114.404 396.867 114.121 396.503C113.393 395.654 112.746 394.766 112.14 393.836C112.099 393.877 112.059 393.917 112.018 393.917C111.574 393.998 111.048 393.877 110.401 393.594C109.633 393.271 108.703 392.664 107.572 391.856C105.429 390.119 103.691 388.058 102.316 385.674C101.791 384.866 101.508 384.179 101.386 383.694C101.346 383.492 101.346 383.29 101.346 383.088C101.467 381.997 101.508 381.391 101.427 381.23C101.467 381.108 101.306 380.906 101.103 380.704Z" fill="#106DC7"/>
<path d="M95.3634 366.037C94.6357 366.481 93.9485 366.885 95.8485 367.694C97.789 368.502 102.317 369.633 103.974 371.29C105.591 372.946 104.298 375.047 107.127 377.916C109.917 380.785 116.83 384.381 120.064 385.472C120.872 385.755 121.438 385.876 121.842 385.876C123.055 385.876 122.732 384.826 122.408 383.735C120.225 378.967 118.083 374.159 124.591 363.653C131.1 353.147 146.26 336.904 157.417 320.217C168.575 303.529 175.73 286.397 172.253 273.103C169.828 263.81 162.228 256.375 155.355 256.375C152.404 256.375 149.575 257.749 147.351 260.941C139.953 271.528 139.225 302.196 131.666 323.045C124.106 343.895 109.715 354.966 95.3634 366.037Z" fill="#6660FF"/>
<path d="M105.429 375.654C104.257 377.27 103.287 378.482 102.559 379.29C101.831 380.058 101.387 380.462 101.265 380.543L101.063 380.704L98.8399 382.401C98.3548 382.886 98.1123 383.209 98.0314 383.371C97.1421 384.906 96.4144 387.897 95.7676 392.422C95.9293 392.866 96.3335 393.271 97.0208 393.553C97.0612 393.594 97.1016 393.594 97.1421 393.634C97.708 393.877 98.274 393.957 98.8399 393.836C99.6485 391.573 100.255 390.038 100.7 389.311C101.144 388.664 101.427 388.341 101.508 388.381C101.67 388.301 101.872 388.26 102.034 388.341C102.114 388.381 102.236 388.462 102.317 388.543C102.519 388.745 102.721 389.068 102.923 389.472C104.54 393.149 105.631 395.331 106.157 395.937C107.168 397.432 108.178 398.564 109.189 399.291C110.24 400.099 111.412 400.746 112.706 401.311C113.474 401.635 114.242 401.917 115.091 402.2C115.981 402.483 117.153 402.766 118.649 403.008C119.861 403.17 120.589 403.13 120.872 402.887L120.832 402.685C120.751 402.523 120.549 402.362 120.306 402.16C118.487 400.746 117.193 399.695 116.466 399.008C116.344 398.887 116.223 398.766 116.102 398.644C113.474 398.038 111.655 397.473 110.604 397.028C110.159 396.826 109.836 396.665 109.715 396.503C108.421 395.937 107.046 394.079 105.51 390.967C103.489 385.553 102.923 382.038 103.772 380.421C104.176 379.856 105.187 379.937 106.885 380.704C107.532 380.987 108.3 381.391 109.189 381.876C109.351 381.351 109.553 380.785 109.836 380.219C107.532 378.724 106.157 377.391 105.631 376.179C105.631 376.017 105.551 375.856 105.429 375.654Z" fill="black" fill-opacity="0.1059"/>
<path d="M112.061 381.512C112.424 381.755 112.788 381.957 113.152 382.159H113.233C112.829 381.916 112.424 381.714 112.061 381.512Z" fill="black" fill-opacity="0.1059"/>
<path d="M159.64 264.982C156.971 263.81 154.708 263.164 152.808 263.002C151.15 262.396 148.805 263.002 145.773 264.82L144.884 265.79C144.642 266.396 144.399 267.043 144.156 267.729C143.227 270.477 142.418 273.629 141.69 277.063C141.69 277.063 141.69 277.063 141.69 277.023C141.569 277.104 140.154 284.74 137.486 299.973C136.758 304.014 135.91 307.974 134.98 311.893C134.05 315.812 132.958 319.489 131.705 323.005C130.452 326.48 128.997 329.712 127.38 332.662C124.105 338.561 120.346 343.733 116.101 348.178C109.633 354.723 102.72 360.663 95.4028 365.997L95.2411 366.118C94.5539 366.481 94.473 366.886 95.0794 367.249C97.7879 368.219 99.8901 369.027 101.386 369.674C103.084 370.401 103.973 370.926 104.054 371.249C104.135 371.33 104.216 371.411 104.256 371.492L102.882 364.704C103.043 364.3 103.731 363.572 104.903 362.522C115.454 354.279 122.65 348.178 126.531 344.177C130.29 340.5 133.605 336.541 136.395 332.298C139.063 328.055 140.922 323.732 141.973 319.409C142.903 315.934 143.833 311.085 144.763 304.903C145.046 303.287 145.45 301.832 145.854 300.579C146.299 299.327 146.865 298.317 147.552 297.549C147.956 297.145 148.361 296.781 148.846 296.539C151.635 295.529 154.708 295.731 158.022 297.185C160.65 298.317 163.48 300.256 166.431 302.963C166.633 303.165 166.835 303.367 167.037 303.569C167.684 302.196 168.291 300.822 168.857 299.448L170.393 295.407C171.323 292.741 172.01 290.114 172.495 287.528C173.506 282.356 173.425 277.588 172.333 273.103C172.293 272.942 172.252 272.821 172.212 272.659C169.948 270.841 167.482 269.144 164.814 267.568C162.874 266.517 161.176 265.669 159.64 264.982Z" fill="black" fill-opacity="0.1059"/>
<path d="M161.42 388.664C160.692 392.18 159.964 395.695 159.035 397.796C158.145 399.897 157.054 400.624 156.933 402.645C156.811 404.665 157.66 408.019 158.509 411.372C158.711 411.574 158.913 411.736 159.358 411.857C159.601 411.898 159.884 411.938 160.207 411.938C160.45 411.938 160.652 411.938 160.854 411.898C161.299 411.817 161.622 411.655 161.945 411.453C161.743 408.302 161.541 405.15 162.713 405.15C162.835 405.15 162.956 405.19 163.077 405.231C164.654 405.877 168.05 410.564 172.901 412.14C174.397 412.625 176.054 412.787 177.631 412.787C181.188 412.787 184.543 411.857 185.514 411.292C186.929 410.483 183.371 410.443 179.167 408.746C174.962 407.089 170.111 403.776 168.009 400.301C165.907 396.826 166.554 393.149 167.201 389.513L161.42 388.664Z" fill="#FFC9FF"/>
<path d="M158.709 398.523L157.335 400.988C157.092 401.635 156.971 402.039 156.971 402.2C156.769 403.938 157.294 407.009 158.507 411.372C158.831 411.736 159.356 411.938 160.084 411.938C160.124 411.938 160.165 411.938 160.245 411.938C160.852 411.938 161.418 411.776 161.903 411.453C161.741 409.029 161.701 407.413 161.822 406.564C161.984 405.796 162.105 405.392 162.186 405.392C162.307 405.231 162.469 405.15 162.671 405.15C162.792 405.15 162.914 405.19 163.035 405.231C163.318 405.352 163.601 405.554 163.965 405.837C166.916 408.584 168.775 410.12 169.503 410.483C171.039 411.453 172.414 412.1 173.626 412.342C174.92 412.625 176.254 412.787 177.669 412.787C178.477 412.787 179.326 412.746 180.216 412.625C181.146 412.544 182.318 412.302 183.814 411.938C184.986 411.615 185.673 411.292 185.795 410.928L185.673 410.766C185.552 410.685 185.309 410.564 184.986 410.483C182.763 409.918 181.146 409.473 180.216 409.11C178.477 408.463 177.426 407.978 177.063 407.776C176.052 407.291 175.082 406.726 174.192 406.12C174.192 406.16 174.152 406.2 174.111 406.241C173.748 406.483 173.222 406.564 172.494 406.564C171.646 406.564 170.554 406.402 169.22 406.12C166.592 405.392 164.126 404.18 161.903 402.523C161.094 401.958 160.569 401.473 160.245 401.069C160.124 400.907 160.043 400.705 159.962 400.544C159.639 399.493 159.437 398.927 159.275 398.806C159.194 398.725 158.992 398.645 158.709 398.523Z" fill="#106DC7"/>
<path d="M147.595 387.371C147.11 388.018 146.665 388.705 148.525 388.705C148.565 388.705 148.646 388.705 148.687 388.705C150.021 388.664 152.446 388.341 154.548 388.341C155.721 388.341 156.772 388.422 157.54 388.745C159.682 389.594 159.359 392.058 163.078 393.553C166.15 394.806 171.972 395.372 175.853 395.372C176.661 395.372 177.389 395.331 177.995 395.291C181.391 395.008 180.421 393.877 179.491 392.745C175.61 389.23 171.689 385.715 173.468 373.472C175.246 361.229 182.644 340.298 186.242 320.58C189.8 300.822 189.517 282.276 181.027 271.447C176.419 265.548 169.344 261.951 163.482 261.951C158.591 261.951 154.508 264.457 153.335 270.235C150.789 282.882 162.35 311.287 163.765 333.429C165.099 355.572 156.327 371.451 147.595 387.371Z" fill="#6660FF"/>
<path d="M160.69 392.18C160.246 394.119 159.842 395.614 159.478 396.665C159.114 397.675 158.871 398.2 158.79 398.321L158.669 398.523L157.295 400.988C157.052 401.635 156.931 402.039 156.931 402.2C156.729 403.938 157.254 407.008 158.467 411.372C158.79 411.736 159.316 411.938 160.044 411.938C160.084 411.938 160.125 411.938 160.205 411.938C160.812 411.938 161.378 411.776 161.863 411.453C161.701 409.029 161.661 407.413 161.782 406.564C161.944 405.796 162.065 405.392 162.146 405.392C162.267 405.231 162.429 405.15 162.631 405.15C162.752 405.15 162.873 405.19 162.995 405.231C163.278 405.352 163.561 405.554 163.925 405.837C166.876 408.584 168.735 410.12 169.463 410.483C170.999 411.453 172.374 412.1 173.586 412.342C174.88 412.625 176.214 412.787 177.629 412.787C178.437 412.787 179.286 412.746 180.176 412.625C181.106 412.544 182.278 412.302 183.774 411.938C184.946 411.615 185.633 411.292 185.755 410.928L185.633 410.766C185.512 410.685 185.269 410.564 184.946 410.483C182.723 409.918 181.106 409.473 180.176 409.11C180.014 409.029 179.852 408.988 179.691 408.908C177.063 409.392 175.163 409.594 174.031 409.594C173.546 409.594 173.182 409.554 172.98 409.473C171.565 409.473 169.544 408.342 166.916 406.079C162.914 401.917 160.973 398.927 161.095 397.109C161.216 396.463 162.227 396.099 164.046 396.099C164.774 396.099 165.622 396.139 166.593 396.261C166.512 395.695 166.512 395.089 166.512 394.483C163.803 394.038 161.984 393.351 161.054 392.462C160.973 392.422 160.852 392.301 160.69 392.18Z" fill="black" fill-opacity="0.1059"/>
<path d="M169.061 394.887C169.505 394.927 169.91 395.008 170.314 395.048L170.354 395.008C169.95 394.968 169.505 394.927 169.061 394.887Z" fill="black" fill-opacity="0.1059"/>
<path d="M166.149 269.063C163.238 269.063 160.894 269.346 159.074 269.952C157.336 270.033 155.396 271.528 153.334 274.437L152.889 275.689C152.93 276.336 152.97 277.063 153.011 277.79C153.293 280.7 153.779 283.892 154.466 287.326C154.385 287.448 156.164 295.003 159.762 310.034C160.691 314.035 161.5 317.994 162.228 321.954C162.915 325.914 163.4 329.752 163.683 333.429C163.926 337.106 163.885 340.662 163.602 344.016C162.955 350.723 161.581 356.946 159.438 362.724C156.123 371.33 152.162 379.533 147.553 387.331L147.432 387.492C146.947 388.099 147.027 388.503 147.755 388.583C150.625 388.381 152.889 388.301 154.466 388.301C156.325 388.301 157.336 388.422 157.538 388.705C157.659 388.745 157.74 388.785 157.821 388.826L153.859 383.129C153.859 382.684 154.183 381.755 154.83 380.341C161.217 368.582 165.381 360.097 167.321 354.925C169.302 350.036 170.717 345.107 171.606 340.096C172.334 335.126 172.334 330.439 171.566 326.035C171 322.479 169.949 317.671 168.332 311.61C167.968 309.994 167.726 308.499 167.604 307.206C167.483 305.913 167.604 304.741 167.928 303.731C168.13 303.206 168.372 302.721 168.696 302.276C170.838 300.216 173.749 299.206 177.347 299.206C180.217 299.206 183.572 299.852 187.372 301.145C187.655 301.226 187.898 301.347 188.141 301.468C188.181 299.933 188.181 298.438 188.141 296.983L187.938 292.66C187.696 289.831 187.292 287.165 186.726 284.619C185.594 279.488 183.613 275.124 180.824 271.447C180.743 271.326 180.621 271.204 180.541 271.083C177.751 270.315 174.8 269.75 171.728 269.386C169.787 269.184 167.887 269.063 166.149 269.063Z" fill="black" fill-opacity="0.1059"/>
<path d="M236.894 197.948C238.147 199.403 239.441 200.858 239.4 202.272C239.4 203.686 238.107 205.1 236.854 206.474C229.819 222.717 222.785 238.96 214.7 244.415C212.315 246.031 209.809 246.678 207.262 246.678C201.158 246.678 194.73 242.92 188.262 239.122C185.836 243.89 183.37 248.658 183.977 256.497C184.583 264.335 188.262 275.285 191.94 286.235C191.334 287.811 190.728 289.387 186.321 291.367C183.33 292.7 178.559 294.236 173.749 294.236C171.485 294.236 169.221 293.912 167.159 293.064C160.61 290.397 155.8 282.76 150.706 279.003C145.653 275.245 140.317 275.407 137.487 274.72C134.657 274.033 134.334 272.497 133.97 270.962C140.034 266.234 146.057 261.547 149.695 250.436C153.334 239.324 154.587 221.869 160.044 213.343C162.915 208.898 166.957 206.878 171.404 206.878C175.447 206.878 179.894 208.535 184.138 211.444C192.911 217.465 201.036 228.94 208.596 228.94C208.758 228.94 208.919 228.94 209.081 228.94C216.802 228.414 223.998 215.565 231.194 202.716C232.285 199.605 233.377 196.453 235.075 194.474C236.368 192.979 238.026 192.13 238.956 192.13C239.239 192.13 239.481 192.211 239.562 192.413C240.007 193.181 238.471 195.565 236.894 197.948Z" fill="#B1ADFF"/>
<path d="M238.875 192.13C238.026 192.13 236.773 192.898 235.156 194.474C234.711 194.918 234.064 195.928 233.296 197.464C232.73 198.595 232.083 200.332 231.275 202.716L229.496 205.908C229.294 206.272 229.092 206.636 228.89 206.959C230.466 207.04 231.719 207.363 232.649 207.929C233.417 208.333 234.266 209.181 235.156 210.474C235.722 209.181 236.288 207.888 236.854 206.515C238.147 205.141 238.875 204.171 239.037 203.726C239.885 202.191 239.279 200.413 237.217 198.353L236.894 197.989C239.117 194.676 240.007 192.857 239.603 192.453C239.4 192.251 239.158 192.13 238.875 192.13Z" fill="#FFC9FF"/>
<path d="M234.387 209.505C229.01 218.515 224.766 225.222 221.653 229.627C219.308 233.021 216.721 235.809 213.851 238.031C211.142 239.971 208.272 240.94 205.28 240.94C204.755 240.94 204.27 240.9 203.744 240.86C199.459 240.455 193.84 238.718 186.887 235.647C179.529 246.112 175.648 253.385 175.325 257.426C174.799 260.174 174.921 262.8 175.729 265.305C175.85 266.275 177.589 270.194 180.984 276.982C181.348 277.952 181.51 278.841 181.55 279.69C181.429 281.872 180.338 283.528 178.316 284.619C176.052 285.993 173.384 286.72 170.312 286.72C168.735 286.72 166.997 286.518 165.178 286.155C163.682 285.791 161.944 284.821 159.882 283.286C153.899 277.184 150.342 274.154 149.21 274.154C148.603 273.75 147.148 273.548 144.763 273.548C143.429 273.548 141.771 273.629 139.831 273.75C138.78 273.588 138.093 273.386 137.769 273.103C136.718 272.255 136.071 271.043 135.91 269.386C135.263 269.911 134.616 270.396 133.929 270.922C134.131 272.093 134.495 272.942 135.02 273.467C135.829 274.154 136.637 274.598 137.446 274.72C142.418 275.487 145.127 276.053 145.612 276.376C147.714 277.184 148.967 277.79 149.371 278.154C149.816 278.275 151.069 279.286 153.171 281.185C158.75 286.963 161.823 290.033 162.469 290.316C164.41 291.892 166.472 293.024 168.695 293.63C170.312 294.074 172.05 294.276 173.829 294.276C178.599 294.276 183.814 292.7 189.555 289.549C190.525 288.943 191.293 287.852 191.899 286.276C186.806 272.093 184.138 261.547 183.855 254.638C183.855 249.183 185.31 244.052 188.221 239.162C195.255 243.607 201.076 246.072 205.685 246.638C206.17 246.678 206.655 246.718 207.14 246.718C210.778 246.718 213.932 245.425 216.64 242.88C219.268 240.415 221.815 237.061 224.281 232.819C227.029 228.253 230.627 220.778 235.074 210.515C234.872 210.111 234.63 209.828 234.387 209.505Z" fill="black" fill-opacity="0.1059"/>
<path d="M176.863 216.899C181.148 207.484 185.393 198.11 186.04 188.493C186.646 178.917 183.655 169.139 180.623 159.361L173.184 163.523C175.044 170.877 176.903 178.19 175.327 184.615C173.75 190.999 168.697 196.453 165.422 201.545C162.148 206.595 160.693 211.282 159.237 215.969L176.863 216.899Z" fill="#B1ADFF"/>
<path d="M180.622 159.361L178.277 160.654C177.832 161.543 177.873 163.078 178.398 165.26C178.641 166.351 178.924 167.402 179.247 168.452L182.319 178.028C182.683 179.281 182.966 180.574 183.209 181.867C183.694 184.857 183.734 187.928 183.209 190.958C182.724 194.029 181.753 196.858 180.379 199.443C179.449 201.181 178.398 202.838 177.226 204.454C176.902 205.019 174.841 207.646 171.041 212.373C170.313 213.343 169.828 214.03 169.545 214.474C169.019 215.202 168.696 215.848 168.534 216.454L176.862 216.899L177.913 214.555C180.379 209.06 181.996 205.141 182.805 202.797C184.098 198.837 184.826 196.494 184.907 195.686C186.039 190.918 186.362 186.15 185.836 181.301C185.311 175.644 183.532 168.331 180.622 159.361Z" fill="black" fill-opacity="0.1059"/>
<path d="M148.565 178.796C157.742 173.382 173.063 164.331 194.529 151.684C198.006 149.623 202.453 150.795 204.514 154.27C206.576 157.745 205.404 162.189 201.927 164.25C192.75 169.664 177.429 178.715 155.963 191.362C152.486 193.423 148.039 192.251 145.978 188.776C143.956 185.301 145.088 180.857 148.565 178.796Z" fill="#FF94FF"/>
<path d="M154.264 179.16C153.981 179.321 153.9 179.685 154.062 179.927C154.426 180.534 154.79 181.14 155.113 181.746C154.426 181.544 153.779 181.382 153.092 181.18C152.93 181.14 152.768 181.18 152.647 181.22C152.526 181.301 152.445 181.422 152.404 181.544C152.324 181.867 152.485 182.15 152.809 182.231C153.496 182.433 154.224 182.635 154.911 182.837C154.264 183.2 153.658 183.564 153.011 183.968C152.728 184.13 152.647 184.493 152.809 184.736C152.97 184.978 153.334 185.099 153.577 184.938C154.183 184.574 154.79 184.21 155.436 183.847C155.275 184.534 155.072 185.221 154.911 185.908C154.83 186.231 155.032 186.514 155.315 186.594C155.477 186.635 155.638 186.594 155.76 186.514C155.881 186.433 156.002 186.312 156.002 186.15C156.164 185.463 156.366 184.776 156.528 184.089C156.892 184.695 157.255 185.301 157.619 185.948C157.781 186.231 158.145 186.312 158.387 186.15C158.67 185.988 158.751 185.625 158.59 185.382C158.226 184.776 157.862 184.17 157.538 183.564C158.226 183.766 158.873 183.928 159.56 184.13C159.721 184.17 159.883 184.13 160.004 184.089C160.126 184.008 160.207 183.887 160.247 183.766C160.328 183.443 160.166 183.16 159.843 183.079C159.155 182.877 158.428 182.675 157.741 182.473C158.387 182.109 158.994 181.746 159.641 181.342C159.924 181.18 160.004 180.816 159.843 180.574C159.681 180.291 159.317 180.21 159.075 180.372C158.468 180.736 157.862 181.099 157.215 181.463C157.377 180.776 157.579 180.089 157.741 179.402C157.821 179.079 157.619 178.796 157.336 178.715C157.175 178.675 157.013 178.715 156.892 178.796C156.77 178.877 156.649 178.998 156.649 179.16C156.487 179.847 156.285 180.534 156.124 181.22C155.76 180.614 155.396 179.968 155.032 179.362C154.87 179.079 154.547 178.998 154.264 179.16Z" fill="white"/>
<path d="M164.169 173.301C163.886 173.463 163.805 173.826 163.967 174.069C164.331 174.675 164.695 175.281 165.018 175.887C164.331 175.685 163.684 175.523 162.997 175.321C162.835 175.281 162.673 175.321 162.552 175.362C162.431 175.442 162.35 175.564 162.31 175.685C162.229 176.008 162.391 176.291 162.714 176.372C163.401 176.574 164.129 176.776 164.816 176.978C164.169 177.342 163.563 177.705 162.916 178.109C162.633 178.271 162.552 178.634 162.714 178.877C162.876 179.16 163.239 179.241 163.482 179.079C164.088 178.715 164.735 178.352 165.342 177.988C165.18 178.675 164.978 179.362 164.816 180.049C164.735 180.372 164.937 180.655 165.22 180.736C165.382 180.776 165.544 180.736 165.665 180.655C165.786 180.574 165.908 180.453 165.908 180.291C166.069 179.604 166.271 178.917 166.433 178.23C166.797 178.837 167.161 179.443 167.525 180.089C167.686 180.372 168.05 180.453 168.293 180.291C168.576 180.13 168.657 179.766 168.495 179.523C168.131 178.917 167.767 178.311 167.444 177.705C168.131 177.907 168.778 178.069 169.465 178.271C169.627 178.311 169.788 178.271 169.91 178.23C170.031 178.15 170.112 178.028 170.152 177.907C170.233 177.584 170.071 177.301 169.748 177.22C169.061 177.018 168.333 176.816 167.646 176.614C168.293 176.251 168.899 175.887 169.546 175.483C169.829 175.321 169.91 174.958 169.748 174.715C169.586 174.432 169.223 174.351 168.98 174.513C168.374 174.877 167.767 175.24 167.12 175.604C167.282 174.917 167.484 174.23 167.646 173.543C167.727 173.22 167.525 172.937 167.242 172.856C167.08 172.816 166.918 172.856 166.797 172.937C166.676 173.018 166.554 173.139 166.554 173.301C166.393 173.988 166.191 174.675 166.029 175.362C165.665 174.756 165.301 174.149 164.937 173.503C164.776 173.22 164.412 173.139 164.169 173.301Z" fill="white"/>
<path d="M173.707 167.684C173.424 167.846 173.344 168.21 173.505 168.452C173.869 169.058 174.233 169.664 174.556 170.27C173.869 170.068 173.222 169.907 172.535 169.705C172.373 169.664 172.212 169.705 172.09 169.745C171.969 169.826 171.888 169.947 171.848 170.068C171.767 170.392 171.929 170.674 172.252 170.755C172.939 170.957 173.667 171.159 174.354 171.361C173.707 171.725 173.101 172.089 172.454 172.493C172.171 172.654 172.09 173.018 172.252 173.26C172.414 173.543 172.778 173.624 173.02 173.462C173.626 173.099 174.233 172.735 174.88 172.372C174.718 173.058 174.516 173.745 174.354 174.432C174.273 174.755 174.475 175.038 174.758 175.119C174.92 175.16 175.082 175.119 175.203 175.038C175.324 174.958 175.446 174.836 175.446 174.675C175.607 173.988 175.809 173.301 175.971 172.614C176.335 173.22 176.699 173.826 177.063 174.473C177.224 174.755 177.588 174.836 177.831 174.675C178.114 174.513 178.195 174.149 178.033 173.907C177.669 173.301 177.305 172.695 176.982 172.089C177.669 172.291 178.316 172.452 179.003 172.654C179.165 172.695 179.327 172.654 179.448 172.614C179.569 172.533 179.65 172.412 179.69 172.291C179.771 171.967 179.61 171.685 179.286 171.604C178.599 171.402 177.871 171.2 177.184 170.998C177.831 170.634 178.437 170.27 179.084 169.866C179.367 169.705 179.448 169.341 179.286 169.099C179.124 168.856 178.761 168.735 178.518 168.897C177.912 169.26 177.305 169.624 176.658 169.988C176.82 169.301 177.022 168.614 177.184 167.927C177.265 167.604 177.063 167.321 176.78 167.24C176.618 167.2 176.456 167.24 176.335 167.321C176.214 167.402 176.092 167.523 176.092 167.684C175.931 168.371 175.729 169.058 175.567 169.745C175.203 169.139 174.839 168.493 174.475 167.886C174.314 167.604 173.99 167.523 173.707 167.684Z" fill="white"/>
<path d="M182.925 162.23C182.642 162.391 182.561 162.755 182.723 162.997C183.087 163.603 183.451 164.21 183.774 164.816C183.087 164.614 182.44 164.452 181.753 164.25C181.591 164.21 181.429 164.25 181.308 164.29C181.187 164.371 181.106 164.492 181.066 164.614C180.985 164.937 181.146 165.22 181.47 165.301C182.157 165.503 182.885 165.705 183.572 165.907C182.925 166.27 182.319 166.634 181.672 167.038C181.389 167.2 181.308 167.563 181.47 167.806C181.631 168.089 181.995 168.169 182.238 168.008C182.844 167.644 183.491 167.28 184.097 166.917C183.936 167.604 183.734 168.291 183.572 168.977C183.491 169.301 183.693 169.584 183.976 169.664C184.138 169.705 184.3 169.664 184.421 169.584C184.542 169.503 184.663 169.382 184.663 169.22C184.825 168.533 185.027 167.846 185.189 167.159C185.553 167.765 185.917 168.371 186.28 169.018C186.442 169.301 186.806 169.382 187.049 169.22C187.332 169.058 187.412 168.695 187.251 168.452C186.887 167.846 186.523 167.24 186.2 166.634C186.887 166.836 187.534 166.998 188.221 167.2C188.383 167.24 188.544 167.2 188.666 167.159C188.787 167.078 188.868 166.957 188.908 166.836C188.989 166.553 188.827 166.23 188.504 166.149C187.817 165.947 187.089 165.745 186.402 165.543C187.049 165.179 187.655 164.816 188.302 164.412C188.585 164.25 188.666 163.886 188.504 163.644C188.342 163.361 187.978 163.28 187.736 163.442C187.129 163.806 186.523 164.169 185.876 164.533C186.038 163.846 186.24 163.159 186.402 162.472C186.483 162.149 186.28 161.866 185.997 161.785C185.836 161.745 185.674 161.785 185.553 161.866C185.432 161.947 185.31 162.068 185.31 162.23C185.149 162.917 184.946 163.603 184.785 164.29C184.421 163.684 184.057 163.078 183.693 162.432C183.531 162.149 183.208 162.068 182.925 162.23Z" fill="white"/>
<path d="M192.061 156.856C191.778 157.017 191.697 157.381 191.859 157.623C192.223 158.229 192.586 158.836 192.91 159.442C192.223 159.24 191.576 159.078 190.889 158.876C190.727 158.836 190.565 158.876 190.444 158.916C190.323 158.997 190.242 159.118 190.201 159.24C190.12 159.522 190.282 159.846 190.606 159.927C191.293 160.129 192.02 160.331 192.708 160.533C192.061 160.896 191.454 161.26 190.808 161.664C190.525 161.826 190.444 162.189 190.606 162.432C190.767 162.715 191.131 162.795 191.374 162.634C191.98 162.27 192.627 161.906 193.233 161.543C193.071 162.23 192.869 162.917 192.708 163.603C192.627 163.927 192.829 164.21 193.112 164.29C193.274 164.331 193.435 164.29 193.557 164.21C193.678 164.129 193.799 164.008 193.799 163.846C193.961 163.159 194.163 162.472 194.325 161.785C194.689 162.391 195.052 162.997 195.416 163.644C195.578 163.927 195.942 164.008 196.184 163.846C196.467 163.684 196.548 163.321 196.386 163.078C196.023 162.472 195.659 161.866 195.335 161.26C196.023 161.462 196.669 161.624 197.357 161.826C197.518 161.866 197.68 161.826 197.801 161.785C197.923 161.704 198.003 161.583 198.044 161.462C198.125 161.179 197.963 160.856 197.64 160.775C196.952 160.573 196.225 160.371 195.537 160.169C196.184 159.805 196.791 159.442 197.437 159.038C197.72 158.876 197.801 158.512 197.64 158.27C197.478 157.987 197.114 157.906 196.872 158.068C196.265 158.432 195.659 158.795 195.012 159.159C195.174 158.472 195.376 157.785 195.537 157.098C195.618 156.775 195.416 156.492 195.133 156.411C194.972 156.371 194.81 156.411 194.689 156.492C194.567 156.573 194.446 156.694 194.446 156.856C194.284 157.543 194.082 158.229 193.92 158.916C193.557 158.31 193.193 157.704 192.829 157.058C192.667 156.775 192.344 156.694 192.061 156.856Z" fill="white"/>
<path d="M173.829 165.26C173.182 164.937 172.778 164.25 172.616 163.159C172.495 162.23 172.738 161.462 173.344 160.815C174.112 160.169 175.446 159.522 177.346 158.916C179.044 158.391 180.176 158.27 180.621 158.593C181.308 159.078 181.672 159.967 181.712 161.26C181.833 162.674 181.55 163.684 180.863 164.371C180.418 164.775 179.287 165.139 177.467 165.381C175.729 165.543 174.516 165.503 173.829 165.26Z" fill="#FFC9FF"/>
<path d="M176.174 208.696C178.478 208.05 180.823 207.403 181.146 204.333C181.47 201.262 179.772 195.767 182.036 192.938C183.167 191.524 185.27 190.797 187.412 190.797C189.636 190.797 191.859 191.605 193.193 193.302C195.78 196.696 194.648 203.605 193.072 206.312C192.344 207.525 191.495 207.888 190.687 207.888C189.676 207.888 188.665 207.403 187.816 207.282C187.736 207.282 187.655 207.282 187.533 207.282C186.159 207.282 185.27 208.454 185.229 209.666C185.189 210.959 186.119 212.293 187.048 213.626C186.078 213.747 185.148 213.828 184.097 213.828C183.491 213.828 182.844 213.788 182.157 213.666C180.338 213.384 178.276 212.656 177.265 211.727C176.174 210.838 176.174 209.787 176.174 208.696Z" fill="#FFC9FF"/>
<path d="M187.333 190.797C186.484 190.797 185.635 190.918 184.826 191.201C184.584 191.281 184.341 191.362 184.139 191.443C183.169 192.332 182.158 193.504 181.147 194.878L180.986 195.484C180.864 196.13 180.824 196.817 180.824 197.504L180.864 198.555L181.188 202.636L181.228 203.524L181.188 204.333C181.147 204.858 181.026 205.302 180.864 205.666C180.339 207.04 179.005 207.969 176.822 208.494L176.256 208.656C176.256 209.909 176.458 210.757 176.903 211.242C177.145 211.646 177.873 212.171 179.086 212.737C180.298 213.262 181.552 213.586 182.845 213.707C182.764 213.424 182.684 213.181 182.684 212.899C182.441 211.444 182.724 210.151 183.452 208.979C183.896 208.414 184.543 208.131 185.311 208.131C185.352 208.131 185.392 208.131 185.433 208.131C185.473 208.131 185.513 208.131 185.554 208.131C185.635 208.131 185.716 208.131 185.796 208.131C185.837 208.05 185.918 207.969 185.958 207.929C186.362 207.444 186.928 207.201 187.616 207.201H187.656C187.696 207.201 187.737 207.201 187.777 207.201L187.696 207.121C187.454 207.121 187.252 207.121 187.009 207.121C185.675 207.121 184.867 206.999 184.584 206.757C184.179 206.474 183.937 206.272 183.937 206.11C183.856 205.908 183.816 205.706 183.775 205.424C183.775 204.494 184.22 203.201 185.15 201.545C186.201 199.807 187.009 198.757 187.535 198.353C188.06 197.868 188.545 197.625 189.03 197.625C189.273 197.625 189.475 197.706 189.718 197.827C189.92 197.948 190.162 198.11 190.365 198.312C191.739 199.888 192.507 200.736 192.709 200.777C193.235 201.181 193.841 201.383 194.569 201.464C194.65 200.979 194.69 200.454 194.73 199.928C194.771 199.08 194.771 198.272 194.69 197.464L194.528 196.251C194.367 195.484 194.124 194.756 193.801 194.069C193.477 193.423 193.033 192.857 192.507 192.372C192.143 191.968 191.375 191.524 190.162 191.079C189.152 190.918 188.222 190.797 187.333 190.797Z" fill="black" fill-opacity="0.1059"/>
<path d="M194.325 185.18C193.718 185.18 193.031 185.261 192.263 185.382L182.52 188.453C181.712 188.736 181.025 189.18 180.418 189.827C179.812 190.433 179.286 191.362 178.882 192.574C178.478 193.585 177.831 196.736 176.861 201.949C176.537 203.242 176.173 203.969 175.769 204.09C175.648 204.131 175.527 204.171 175.325 204.171C175.122 204.171 174.92 204.131 174.637 204.09C171.727 203.161 169.988 202.676 169.301 202.555C167.846 202.231 166.35 201.989 164.773 201.868C162.873 201.706 161.014 201.585 159.235 201.585C157.497 201.585 155.839 201.666 154.182 201.827C150.584 202.151 147.067 202.918 143.59 204.211C141.529 204.898 139.224 206.191 136.718 208.09C135.465 209.141 134.292 210.232 133.282 211.484C136.192 210.515 140.194 209.505 145.248 208.414C141.448 210.272 137.931 212.252 134.616 214.232C132.028 215.969 130.614 217.02 130.25 217.424C129.805 217.828 129.36 218.192 128.956 218.596C128.552 219.687 128.107 221.141 127.582 222.879C127.218 224.495 127.016 226.111 127.016 227.728C127.016 230.152 127.379 232.455 128.067 234.637C128.673 233.748 129.36 232.819 130.128 231.93C132.19 229.465 135.788 226.071 141.003 221.707C138.537 225.142 136.314 228.536 134.373 231.849C132.918 234.597 132.109 236.213 132.028 236.698C131.624 237.748 131.301 238.799 131.058 239.809L130.937 240.496C131.988 242.031 133.282 243.526 134.737 244.9C139.75 249.587 145.935 252.335 153.333 253.102C154.101 253.183 154.95 253.224 155.839 253.224C158.022 253.224 160.488 252.941 163.197 252.335C166.673 251.486 169.624 250.072 172.05 248.052C174.759 245.425 176.376 242.88 176.901 240.334C177.225 239.728 177.629 237.546 178.154 233.829C178.761 226.071 179.205 221.505 179.529 220.05C179.569 219.283 180.095 217.141 181.105 213.747C182.682 209.02 185.431 203.444 189.393 196.979L189.837 197.383C191.94 199.241 193.557 200.171 194.729 200.171C195.093 200.171 195.376 200.09 195.659 199.928C197.761 198.635 199.135 196.413 199.742 193.261C200.267 191.079 199.782 188.898 198.165 186.837C197.437 185.705 196.144 185.18 194.325 185.18Z" fill="#106DC7"/>
<path d="M54.8978 98.0651L55.4638 97.1762C59.3042 90.186 64.2362 87.3171 70.3001 88.1657C74.2214 88.7313 76.5661 91.3173 77.3342 96.2468C80.1236 93.9437 83.0746 93.4588 86.2279 94.469C89.0577 95.3983 90.9173 96.6913 91.6854 98.6712C103.449 100.853 110.2 103.116 111.898 105.459C106.885 107.601 96.496 109.662 80.6895 111.278C70.5426 112.328 59.5064 112.248 47.6212 110.955C36.9487 109.783 32.6636 107.48 35.0891 105.298C39.7381 101.055 46.4488 98.954 54.8978 98.0651Z" fill="#436381"/>
<path d="M97.5072 97.6611C103.086 90.0647 108.624 82.4684 115.82 79.1148C118.933 77.6601 122.369 76.9732 125.644 76.9732C129.888 76.9732 133.891 78.1046 136.518 80.1249C141.208 83.6402 141.733 89.8627 142.259 96.0852C145.25 93.9841 148.282 91.883 152.365 91.681C152.567 91.681 152.769 91.681 152.972 91.681C156.974 91.681 161.825 93.378 164.776 95.4387C167.889 97.6207 168.859 100.287 169.829 102.914C179.087 105.661 188.385 108.369 194.731 111.035C201.078 113.702 204.514 116.288 207.951 118.834C208.274 119.844 208.597 120.894 195.58 123.44C183.129 125.864 158.469 129.743 131.101 129.743C129.888 129.743 128.716 129.743 127.503 129.703C98.72 129.339 67.39 124.531 58.1729 118.834C48.9153 113.137 61.7708 106.47 71.9985 102.793C82.2262 99.1157 89.8667 98.3884 97.5072 97.6611Z" fill="#3D5F7E"/>
<path d="M126.006 85.4989L126.492 85.0544C129.807 81.4583 134.051 79.9229 139.307 80.4481C142.702 80.6906 144.764 82.1048 145.451 84.6908C147.836 83.519 150.424 83.2361 153.173 83.8422C155.639 84.2867 157.256 85.014 157.943 86.0646C168.171 87.2767 174.032 88.4889 175.528 89.7415C171.203 90.8325 162.188 91.7618 148.443 92.5699C139.63 93.0144 130.049 92.8932 119.74 92.2063C110.483 91.4789 106.845 90.4688 108.825 89.1758C112.908 87.1555 118.649 85.9433 126.006 85.4989Z" fill="#436381"/>
</svg>
